<svg width="80" height="80" viewBox="0 0 80 80" fill="none" xmlns="http://www.w3.org/2000/svg">
<g clip-path="url(#clip0_919_2839)">
<path d="M40 80C62.0914 80 80 62.0914 80 40C80 17.9086 62.0914 0 40 0C17.9086 0 0 17.9086 0 40C0 62.0914 17.9086 80 40 80Z" fill="#FF8051"/>
<path d="M76.57 23.79C70.36 37.8 56.32 47.57 40 47.57C23.68 47.57 9.64001 37.8 3.42999 23.79C9.64001 9.76996 23.68 0 40 0C56.32 0 70.36 9.76996 76.57 23.79Z" fill="#FEBA55"/>
<path d="M53.6397 24.5188C52.6544 26.2207 50.8138 27.3656 48.7058 27.3656C46.5981 27.3656 44.7577 26.221 43.7722 24.5196" stroke="#FF392C" stroke-width="2" stroke-miterlimit="10" stroke-linecap="round"/>
<path d="M36.2278 24.5188C35.2424 26.2207 33.4018 27.3656 31.2938 27.3656C29.1861 27.3656 27.3457 26.221 26.3603 24.5196" stroke="#FF392C" stroke-width="2" stroke-miterlimit="10" stroke-linecap="round"/>
<path d="M69.578 23.4392C63.6708 33.7027 52.6363 40.6071 39.9987 40.6071C27.3629 40.6071 16.3298 33.7047 10.422 23.4437" stroke="#FF8051" stroke-width="3" stroke-miterlimit="10" stroke-linecap="round"/>
<path d="M62 70C62 57.8505 52.1495 48 40 48C27.8505 48 18 57.8505 18 70C27.4502 70 36.6332 65.714 40 57.723C43.3668 65.714 52.5498 70 62 70Z" fill="#FF392C"/>
</g>
<defs>
<clipPath id="clip0_919_2839">
<rect width="80" height="80" fill="white"/>
</clipPath>
</defs>
</svg>
