<svg width="80" height="80" viewBox="0 0 80 80" fill="none" xmlns="http://www.w3.org/2000/svg">
<g clip-path="url(#clip0_919_2855)">
<path d="M40 80C62.0914 80 80 62.0914 80 40C80 17.9086 62.0914 0 40 0C17.9086 0 0 17.9086 0 40C0 62.0914 17.9086 80 40 80Z" fill="#9197FF"/>
<g style="mix-blend-mode:overlay">
<path fill-rule="evenodd" clip-rule="evenodd" d="M15.5007 40.9125C10.3029 44.9463 6.12765 50.2347 3.42999 56.325C9.64001 70.335 23.68 80.105 40 80.105C56.32 80.105 70.36 70.335 76.57 56.325C70.36 42.305 56.32 32.535 40 32.535C38.1936 32.535 36.4152 32.6547 34.6722 32.8866C33.5106 28.352 29.3968 25 24.5 25C18.701 25 14 29.701 14 35.5C14 37.48 14.548 39.332 15.5007 40.9125Z" fill="#323846"/>
</g>
<path d="M40 80V0" stroke="#FEBA55" stroke-width="3" stroke-miterlimit="10" stroke-linecap="round" stroke-linejoin="round"/>
<path d="M40 65.6518L21.2634 46.9152C20.7008 46.3526 20.3847 45.5895 20.3847 44.7939V16.5" stroke="#FEBA55" stroke-width="3" stroke-miterlimit="10" stroke-linecap="round" stroke-linejoin="round"/>
<path d="M40 52.5341L58.7366 33.7975C59.2992 33.2349 59.6153 32.4718 59.6153 31.6762V16" stroke="#FEBA55" stroke-width="3" stroke-miterlimit="10" stroke-linecap="round" stroke-linejoin="round"/>
</g>
<defs>
<clipPath id="clip0_919_2855">
<rect width="80" height="80" fill="white"/>
</clipPath>
</defs>
</svg>
