<svg width="80" height="80" viewBox="0 0 80 80" fill="none" xmlns="http://www.w3.org/2000/svg">
<g clip-path="url(#clip0_919_2863)">
<path d="M40 80C62.0914 80 80 62.0914 80 40C80 17.9086 62.0914 0 40 0C17.9086 0 0 17.9086 0 40C0 62.0914 17.9086 80 40 80Z" fill="#FF8051"/>
<path d="M16.3107 63.7252C3.50775 50.9223 3.22325 30.3663 15.4394 17.2137C15.7239 16.9055 16.0143 16.6032 16.3107 16.3068C16.6071 16.0104 16.9094 15.72 17.2176 15.4355C28.9833 4.49955 46.7059 3.58676 59.4734 12.703C60.2973 13.2898 61.1034 13.9181 61.8858 14.5938C62.5141 15.1391 63.1305 15.7081 63.7292 16.3068" stroke="#FEBA55" stroke-width="3" stroke-miterlimit="10"/>
<path d="M63.6893 16.2671C76.4922 29.0701 76.7767 49.626 64.5606 62.7786C64.2761 63.0869 63.9856 63.3892 63.6893 63.6856C63.3929 63.9819 63.0906 64.2723 62.7824 64.5568C51.0167 75.4928 33.2941 76.4056 20.5266 67.2894C19.7027 66.7026 18.8966 66.0743 18.1142 65.3986C17.4859 64.8533 16.8695 64.2842 16.2708 63.6856" stroke="#FF392C" stroke-width="3" stroke-miterlimit="10"/>
<path d="M38.6097 51.8323L38.7538 41.5598C32.0809 40.0237 28.1927 36.4231 28.1927 31.8147C28.1927 26.054 32.1771 22.5022 38.9935 21.9739L39.0184 20.2944C39.0314 19.4157 39.7474 18.7102 40.6262 18.7102C41.5234 18.7102 42.247 19.4444 42.2341 20.3415L42.2098 22.0217C45.9131 22.3926 49.3696 24.2093 51.9442 27.0788C52.6388 27.8529 52.4489 29.0744 51.5864 29.6556L50.0428 30.6957C49.3236 31.1803 48.3756 31.0466 47.7772 30.4188C46.2298 28.7956 44.244 27.6952 42.162 27.302L42.0179 36.9514C48.9784 38.4875 53.0589 42.136 53.0589 46.7444C53.0589 52.8889 48.8827 56.6331 41.7298 57.0647L41.6997 59.723C41.6899 60.5909 40.9835 61.2893 40.1156 61.2893C39.2337 61.2893 38.5216 60.5692 38.5315 59.6873L38.5614 57.0168C34.3196 56.5973 30.5184 54.6707 27.8978 51.6549C27.2904 50.9559 27.4443 49.8752 28.2005 49.341L29.9877 48.0784C30.6764 47.5919 31.6003 47.7515 32.1457 48.3945C33.7558 50.2927 36.0495 51.5124 38.6097 51.8323H38.6097ZM38.8016 36.135L38.9456 27.1584C35.7293 27.5422 33.8573 29.2707 33.8573 31.9104C33.8573 33.6389 35.6815 35.175 38.8016 36.135ZM47.4422 47.0325C47.4422 44.968 45.4261 43.2395 41.9217 42.2317L41.826 51.8323C45.3783 51.4006 47.4422 49.6721 47.4422 47.0325V47.0325Z" fill="#FFF1E4"/>
</g>
<defs>
<clipPath id="clip0_919_2863">
<rect width="80" height="80" fill="white"/>
</clipPath>
</defs>
</svg>
