<svg width="80" height="80" viewBox="0 0 80 80" fill="none" xmlns="http://www.w3.org/2000/svg">
<g clip-path="url(#clip0_919_2977)">
<path d="M80 40C80 61.59 62.9 79.18 41.5 79.97C41 79.99 40.5 80 40 80C39.5 80 39 79.99 38.5 79.97C17.1 79.18 0 61.59 0 40C0 30.49 3.31 21.75 8.86005 14.89C9.48999 14.11 10.15 13.36 10.84 12.63C14.78 8.41998 19.64 5.05999 25.1 2.88C26.12 2.46002 27.16 2.09002 28.22 1.76C31.49 0.76001 34.93 0.15997 38.5 0.03003C39 0.01001 39.5 0 40 0C40.5 0 41 0.01001 41.5 0.03003C45.1101 0.15997 48.6101 0.78003 51.92 1.81C52.98 2.14002 54.03 2.51001 55.05 2.93C56.69 3.59003 58.28 4.37 59.8 5.24C63.33 7.25001 66.51 9.78004 69.25 12.73C69.94 13.46 70.6 14.22 71.23 15C73.63 17.99 75.6 21.34 77.06 24.96C78.15 27.63 78.96 30.44 79.45 33.37C79.65 34.56 79.8 35.77 79.89 37C79.96 37.99 80 38.99 80 40H80Z" fill="#01C587"/>
<path d="M41.5 0.03003V79.97C41 79.99 40.5 80 40 80C39.5 80 39 79.99 38.5 79.97V0.03003C39 0.01001 39.5 0 40 0C40.5 0 41 0.01001 41.5 0.03003Z" fill="#029971"/>
<path d="M71.23 15L41.06 45.17C40.77 45.46 40.38 45.61 40 45.61C39.62 45.61 39.23 45.46 38.94 45.17C38.35 44.58 38.35 43.63 38.94 43.05L69.25 12.73C69.94 13.46 70.6 14.22 71.23 15V15Z" fill="#029971"/>
<path d="M55.0501 2.93005L41.06 16.92C40.77 17.2101 40.38 17.35 40 17.35C39.62 17.35 39.23 17.2101 38.94 16.92C38.35 16.3301 38.35 15.3801 38.94 14.79L51.92 1.81006C52.98 2.14008 54.03 2.51007 55.05 2.93006L55.0501 2.93005Z" fill="#029971"/>
<path d="M79.89 37.0001L41.06 75.8301C40.77 76.1201 40.38 76.2701 40 76.2701C39.62 76.2701 39.23 76.1201 38.94 75.8301C38.35 75.2401 38.35 74.2901 38.94 73.7001L78.94 33.7001C79.09 33.5501 79.26 33.4401 79.45 33.3701C79.65 34.5601 79.8 35.7701 79.89 37.0001H79.89Z" fill="#029971"/>
<path d="M41.08 44.9899C40.79 45.2799 40.41 45.4299 40.02 45.4299C39.64 45.4299 39.26 45.2799 38.96 44.9899L8.86005 14.8899C9.48999 14.1099 10.15 13.3599 10.84 12.6299L41.08 42.8699C41.67 43.4599 41.67 44.3999 41.08 44.9899Z" fill="#029971"/>
<path d="M41.08 16.74C40.79 17.03 40.41 17.18 40.02 17.18C39.64 17.18 39.26 17.03 38.96 16.74L25.1 2.88001C26.12 2.46003 27.16 2.09003 28.22 1.76001L41.08 14.62C41.6701 15.2 41.6701 16.15 41.08 16.74H41.08Z" fill="#029971"/>
<path d="M0.134094 36.8234L38.9641 75.6534C39.2541 75.9434 39.6441 76.0934 40.0241 76.0934C40.4041 76.0934 40.7941 75.9434 41.0841 75.6534C41.6741 75.0634 41.6741 74.1133 41.0841 73.5234L1.0841 33.5234C0.934084 33.3734 0.764094 33.2634 0.574094 33.1934C0.374084 34.3834 0.224054 35.5934 0.134094 36.8234V36.8234Z" fill="#029971"/>
<path d="M77.06 24.96C74.78 29.85 69.83 33.23 64.08 33.23C56.17 33.23 49.76 26.82 49.76 18.91C49.76 12.49 53.98 7.05999 59.8 5.23999C63.33 7.25 66.51 9.78003 69.25 12.73C69.94 13.46 70.6 14.22 71.23 15C73.63 17.99 75.6 21.34 77.06 24.96Z" fill="#FEBA55"/>
<path d="M26.0935 35.8615C29.0002 35.8615 31.3566 33.5051 31.3566 30.5983C31.3566 27.6916 29.0002 25.3352 26.0935 25.3352C23.1867 25.3352 20.8303 27.6916 20.8303 30.5983C20.8303 33.5051 23.1867 35.8615 26.0935 35.8615Z" fill="#FEBA55"/>
</g>
<defs>
<clipPath id="clip0_919_2977">
<rect width="80" height="80" fill="white"/>
</clipPath>
</defs>
</svg>
