<svg width="800" height="800" viewBox="0 0 800 800" fill="none" xmlns="http://www.w3.org/2000/svg">
<circle cx="400" cy="400" r="400" fill="#FF8051"/>
<path fill-rule="evenodd" clip-rule="evenodd" d="M440.414 76.2817C426.824 80.5287 417.648 91.2977 415.142 105.942C414.391 110.328 414.138 140.084 414.337 200.831L414.628 289.331L417.263 294.951C424.044 309.413 438.5 317.844 454.251 316.524C467.619 315.403 465.82 316.919 534.87 248.593C569.386 214.439 599.108 184.441 600.917 181.931C605.562 175.488 607.466 168.186 606.917 158.916C606.096 145.071 600.787 137.463 584.294 126.501C548.578 102.76 508.648 86.0867 466.518 77.3207C453.329 74.5767 446.712 74.3127 440.414 76.2817ZM636.128 199.174C633.103 199.873 628.603 201.475 626.128 202.735C622.992 204.331 602.318 224.318 557.921 268.678C484.873 341.664 488.628 337.05 488.628 353.831C488.628 362.028 488.993 364.109 491.288 369.006C496.466 380.051 506.13 387.576 518.013 389.816C525.663 391.258 691.821 391.189 699.654 389.742C716.121 386.697 728.307 373.756 729.747 357.782C730.812 345.981 722.191 311.335 711.472 284.331C699.226 253.481 675.451 212.756 665.365 205.356C657.009 199.226 645.99 196.896 636.128 199.174ZM248.746 208.89C241.374 210.722 232.735 216.157 225.052 223.797C213.074 235.71 208.324 247.565 209.415 262.831C210.096 272.358 212.944 279.684 219.227 288.075C227.1 298.587 239.502 306.956 254.128 311.627C266.146 315.465 272.277 316.272 289.628 316.302C308.578 316.334 310.932 315.72 315.299 309.596C317.545 306.447 317.627 305.657 317.587 287.331C317.539 264.741 315.83 256.038 308.458 240.831C302.265 228.057 292.115 217.627 280.515 212.115C273.214 208.645 271.884 208.35 262.628 208.146C257.128 208.025 250.881 208.36 248.746 208.89ZM157.473 360.674C146.599 363.444 139.476 367.483 131.628 375.331C117.387 389.572 111.974 410.145 116.632 432.331C121.046 453.351 137.349 470.607 157.221 475.291C165.26 477.186 180.568 477.233 189.266 475.389C208.94 471.219 230.483 457.13 249.187 436.2C257.389 427.022 262.925 419.162 263.179 416.331C263.773 409.709 263.187 408.622 253.878 399.088C235.653 380.422 217.846 368.681 198.128 362.329C186.739 358.66 168.323 357.91 157.473 360.674ZM517.778 421.88C506.442 423.782 496.47 431.603 491.288 442.656C488.993 447.553 488.628 449.634 488.628 457.831C488.628 474.612 484.873 469.998 557.921 542.986C607.478 592.503 622.752 607.201 626.69 609.159C639.687 615.619 654.297 614.465 665.695 606.077C672.281 601.23 688.212 576.607 700.059 552.964C716.371 520.409 731.265 470.702 729.747 453.88C728.307 437.906 716.121 424.965 699.654 421.92C692.67 420.629 525.453 420.592 517.778 421.88ZM335.428 496.634C332.568 497.655 328.518 499.678 326.428 501.131C324.338 502.584 294.661 531.798 260.479 566.052C212.342 614.29 197.762 629.472 195.807 633.394C189.339 646.373 190.492 660.996 198.882 672.398C203.729 678.984 228.352 694.915 251.995 706.762C284.442 723.02 334.259 737.967 350.976 736.46C367.367 734.983 380.192 722.718 383.121 705.72C383.882 701.305 384.131 672.137 383.926 611.331L383.628 523.331L381.324 517.629C378.117 509.692 371.434 502.599 363.467 498.677C355.075 494.546 343.619 493.711 335.428 496.634ZM440.414 496.234C429.757 499.686 420.931 507.74 416.91 517.684L414.628 523.331L414.332 611.331C414.126 672.867 414.374 701.284 415.155 705.826C417.332 718.488 424.715 728.324 435.988 733.58C444.021 737.325 451.281 737.515 466.414 734.375C495.327 728.375 522.749 718.656 550.344 704.629C568.571 695.364 594.531 678.616 598.265 673.712C607.631 661.411 609.145 646.851 602.456 633.394C600.498 629.456 585.8 614.181 536.283 564.624C464.424 492.706 467.908 495.601 452.628 495.121C447.894 494.972 442.908 495.426 440.414 496.234Z" fill="#FF392C"/>
</svg>
