<svg width="80" height="80" viewBox="0 0 80 80" fill="none" xmlns="http://www.w3.org/2000/svg">
<g clip-path="url(#clip0_919_2822)">
<path d="M40 80C62.0914 80 80 62.0914 80 40C80 17.9086 62.0914 0 40 0C17.9086 0 3.05176e-05 17.9086 3.05176e-05 40C3.05176e-05 62.0914 17.9086 80 40 80Z" fill="#FF8051"/>
<path fill-rule="evenodd" clip-rule="evenodd" d="M52.1758 78.1107C38.3764 82.5068 22.6628 79.2314 11.7158 68.2843C0.768773 57.3373 -2.50669 41.6238 1.88937 27.8245C15.9736 19.2001 34.6323 20.9839 46.8243 33.1759C59.0162 45.3678 60.8 64.0264 52.1758 78.1107Z" fill="#4E5DFF"/>
<path fill-rule="evenodd" clip-rule="evenodd" d="M1.25929 30.017C14.9082 20.7257 33.6593 22.1321 45.7636 34.2364C57.8679 46.3407 59.2744 65.0917 49.9831 78.7406C51.4598 78.3616 52.9192 77.897 54.3532 77.3468C62.2917 62.8884 60.1356 44.3658 47.8849 32.1151C35.6342 19.8644 17.1115 17.7084 2.65315 25.647C2.10296 27.081 1.63834 28.5403 1.25929 30.017Z" fill="#FEBA55"/>
<path d="M43.09 63.7802L41.0421 40.3723L24.4269 56.9875L34.9946 56.9875L43.09 63.7802Z" fill="#FEBA55"/>
<path fill-rule="evenodd" clip-rule="evenodd" d="M72.5969 60.9427L19.5919 7.93773L21.7132 5.81641L74.7182 58.8214L72.5969 60.9427Z" fill="#FEBA55"/>
<path d="M43.1558 36.8442C45.1819 38.8703 48.4667 38.8703 50.4927 36.8442C52.5188 34.8182 52.5188 31.5334 50.4927 29.5073C48.4667 27.4813 45.1819 27.4813 43.1558 29.5073C41.1298 31.5334 41.1298 34.8182 43.1558 36.8442Z" fill="white"/>
</g>
<defs>
<clipPath id="clip0_919_2822">
<rect width="80" height="80" fill="white"/>
</clipPath>
</defs>
</svg>
